<svg version="1.1" viewBox="0.0 0.0 96.0 96.0" fill="none" stroke="none" stroke-linecap="square" stroke-miterlimit="10" xmlns:xlink="http://www.w3.org/1999/xlink" xmlns="http://www.w3.org/2000/svg"><clipPath id="p.0"><path d="m0 0l96.0 0l0 96.0l-96.0 0l0 -96.0z" clip-rule="nonzero"/></clipPath><g clip-path="url(#p.0)"><path fill="#000000" fill-opacity="0.0" d="m0 0l96.0 0l0 96.0l-96.0 0z" fill-rule="evenodd"/><path fill="#000000" fill-opacity="0.0" d="m0 -48.0l102.77165 0l0 152.62991l-102.77165 0z" fill-rule="evenodd"/><path fill="#ffffff" d="m68.4375 17.505005l15.0625 0q-3.5625 7.25 -5.96875 18.53125q-2.40625 11.28125 -2.40625 15.78125q0 5.8125 2.1875 15.1875q2.1875 9.375 5.5 16.875l-14.75 0q-0.3125 -1.25 -1.125 -3.5q-1.3125 -3.75 -2.25 -7.5q-7.6875 12.5 -21.9375 12.5q-13.4375 0 -21.15625 -10.90625q-7.71875 -10.90625 -7.71875 -25.46875q0 -13.75 7.6875 -23.375q7.6875 -9.625 21.375 -9.625q13.5 0 21.8125 12.9375q1.125 -4.5625 3.6875 -11.4375zm-36.5625 33.375q0 9.1875 3.90625 14.90625q3.90625 5.71875 10.15625 5.71875q6.0 0 9.8125 -5.0625q3.8125 -5.0625 3.8125 -15.5625q0 -10.3125 -4.0625 -15.625q-4.0625 -5.3125 -9.8125 -5.3125q-6.0 0 -9.90625 5.5q-3.90625 5.5 -3.90625 15.4375z" fill-rule="nonzero"/></g></svg>